<?xml version="1.0" standalone="no"?>
<!DOCTYPE svg PUBLIC "-//W3C//DTD SVG 20010904//EN"
 "http://www.w3.org/TR/2001/REC-SVG-20010904/DTD/svg10.dtd">
<svg version="1.0" xmlns="http://www.w3.org/2000/svg"
 width="600.000000pt" height="600.000000pt" viewBox="0 0 600.000000 600.000000"
 preserveAspectRatio="xMidYMid meet">
<g transform="translate(0.000000,600.000000) scale(0.100000,-0.100000)"
fill="#000000" stroke="none">
<path d="M1565 5439 c-143 -24 -221 -49 -355 -112 -130 -61 -201 -113 -329
-237 -59 -58 -76 -79 -141 -175 -77 -115 -147 -282 -164 -390 -3 -22 -10 -60
-16 -85 -5 -27 -9 -603 -10 -1437 0 -1343 1 -1395 20 -1490 17 -88 46 -186 69
-231 5 -9 21 -44 36 -77 15 -33 38 -73 50 -90 12 -16 24 -38 28 -48 3 -9 11
-17 17 -17 5 0 10 -5 10 -11 0 -28 145 -178 249 -257 58 -44 280 -160 316
-165 11 -1 26 -6 32 -10 7 -4 25 -10 40 -12 16 -2 57 -12 93 -21 59 -16 187
-18 1395 -21 1236 -4 1474 0 1590 22 69 14 119 26 129 33 6 3 17 7 25 9 20 3
128 49 186 80 47 26 120 75 157 107 9 8 18 13 20 11 5 -5 143 137 188 193 36
45 121 179 124 197 1 6 11 30 22 55 42 90 64 148 69 186 2 22 7 50 10 64 22
103 25 269 25 1495 0 1108 -3 1357 -15 1440 -16 112 -44 211 -80 284 -14 27
-25 56 -25 65 0 9 -4 16 -8 16 -5 0 -16 17 -25 38 -15 33 -24 49 -49 86 -77
114 -207 242 -321 319 -56 38 -208 110 -282 135 -56 19 -85 25 -223 52 -66 12
-2784 12 -2857 -1z m2945 -46 c412 -102 716 -374 846 -755 56 -165 54 -113 54
-1632 0 -811 -4 -1424 -9 -1456 -23 -133 -52 -223 -111 -340 -175 -347 -527
-585 -915 -617 -115 -10 -2630 -10 -2750 0 -107 8 -251 45 -358 92 -339 146
-591 461 -666 831 -19 96 -20 137 -20 1484 l0 1385 24 110 c39 188 98 317 211
468 65 86 176 193 265 254 122 84 298 154 459 182 99 18 179 19 1495 17 1375
-2 1391 -2 1475 -23z"/>
<path d="M1605 5349 c-501 -64 -890 -447 -955 -941 -8 -57 -10 -512 -8 -1463
l3 -1380 27 -97 c107 -390 392 -675 783 -785 l100 -28 1410 -3 c1242 -2 1419
-1 1495 13 353 65 652 293 795 609 72 160 95 262 100 461 l4 140 -9 -130 c-5
-71 -16 -151 -24 -176 -8 -25 -13 -55 -10 -67 5 -16 1 -22 -19 -27 -53 -14
-95 8 -242 126 -39 31 -212 165 -385 299 -649 503 -768 595 -872 682 -60 50
-108 92 -108 95 0 3 15 19 33 35 17 17 26 27 20 23 -9 -4 -11 -1 -7 9 3 9 9
14 14 11 4 -2 13 8 21 23 8 15 16 29 19 32 22 22 80 124 80 141 0 11 3 19 8
17 106 -48 705 -439 1227 -801 l250 -174 3 1151 c2 790 -1 1182 -8 1249 -57
506 -461 902 -975 957 -114 12 -2673 11 -2770 -1z m2843 -36 c4 -7 16 -12 27
-11 29 1 100 -20 178 -53 37 -15 67 -26 67 -23 0 3 14 -4 30 -16 17 -12 36
-23 43 -24 27 -6 47 -19 41 -27 -3 -5 -1 -9 4 -9 12 0 104 -61 123 -82 9 -10
33 -32 54 -48 21 -17 35 -30 31 -30 -4 0 5 -11 19 -24 15 -14 24 -30 20 -35
-3 -7 0 -8 9 -5 10 4 16 1 16 -7 0 -8 9 -25 21 -39 11 -14 29 -38 41 -55 20
-27 20 -28 3 -15 -12 9 -9 2 8 -18 15 -19 27 -38 27 -43 0 -20 2 -24 16 -32 8
-4 14 -15 14 -23 0 -8 7 -28 15 -44 8 -16 27 -73 42 -127 l27 -98 3 -1174 c3
-912 1 -1176 -8 -1182 -15 -9 -50 11 -42 26 4 5 3 7 -2 3 -8 -7 -30 5 -75 42
-25 21 -50 39 -220 154 -52 36 -136 93 -185 128 -50 35 -97 67 -105 71 -31 16
-57 33 -95 63 -22 17 -69 49 -105 72 -36 23 -70 45 -76 50 -6 5 -37 27 -70 48
-32 21 -62 43 -66 49 -4 5 -8 6 -8 2 0 -5 -22 7 -49 27 -27 20 -53 36 -59 36
-6 0 -15 6 -19 13 -4 8 -15 16 -23 20 -8 3 -37 20 -65 36 -27 17 -69 39 -91
49 -39 19 -41 22 -40 60 1 53 -18 85 -68 112 -22 13 -44 28 -47 33 -7 10 -50
18 -108 21 -48 2 -106 55 -96 87 4 13 14 29 21 37 8 7 14 20 14 28 0 8 5 14
10 14 6 0 10 5 10 11 0 6 15 31 32 57 35 50 43 116 19 146 -10 12 -10 20 0 38
21 40 30 48 47 39 49 -25 91 -39 96 -33 4 3 17 7 29 9 27 4 125 106 133 139 3
13 11 21 17 17 6 -3 7 -1 3 6 -4 6 -2 19 5 27 14 17 16 25 24 94 5 52 -15 117
-54 170 -14 19 -28 36 -32 38 -3 1 -15 10 -25 18 -10 9 -12 12 -4 8 9 -4 12
-3 7 2 -5 5 -12 9 -16 9 -7 0 -113 66 -121 76 -3 3 -30 21 -61 40 -32 19 -90
56 -130 84 -41 27 -90 57 -109 66 -19 8 -41 23 -49 32 -7 10 -19 17 -25 17 -7
0 -35 16 -62 35 -27 19 -55 35 -61 35 -7 0 -13 3 -13 8 0 4 -24 20 -53 36 -28
17 -58 36 -65 43 -8 7 -18 11 -23 8 -5 -4 -9 -2 -9 3 0 13 -71 32 -123 32 -48
0 -147 -28 -147 -42 0 -4 -6 -8 -14 -8 -26 0 -141 -153 -130 -172 4 -6 2 -8
-3 -5 -23 15 -31 -92 -10 -139 7 -16 19 -30 27 -32 8 -2 17 -8 18 -13 2 -5 10
-9 17 -9 11 0 12 -6 3 -31 -10 -30 -33 -44 -85 -53 -15 -2 -30 -5 -33 -6 -3
-1 -9 -2 -13 -1 -5 1 -6 -3 -2 -9 3 -5 3 -10 -2 -10 -4 0 -19 -17 -33 -38 -14
-20 -33 -43 -42 -50 -10 -7 -18 -20 -18 -29 0 -9 -11 -31 -25 -49 -14 -18 -25
-37 -25 -43 0 -5 -5 -13 -12 -17 -7 -5 -8 -3 -3 6 5 8 4 11 -3 6 -6 -4 -8 -14
-5 -23 4 -10 2 -14 -4 -10 -10 6 -29 -37 -24 -56 1 -5 -3 -6 -8 -3 -5 4 -15
-9 -22 -29 -7 -19 -15 -32 -18 -30 -5 6 -66 -97 -63 -107 1 -4 -6 -4 -15 -1
-10 4 -14 2 -10 -4 8 -13 -47 -108 -78 -136 -11 -10 -14 -15 -7 -12 15 8 -29
-65 -60 -101 -10 -11 -18 -25 -18 -32 0 -6 -9 -27 -21 -47 -16 -26 -19 -44
-15 -68 4 -17 9 -43 12 -57 3 -16 -3 -34 -16 -49 l-21 -24 -40 21 c-22 12 -37
17 -34 12 3 -6 0 -10 -9 -10 -8 0 -16 5 -18 10 -4 12 -111 -53 -108 -64 1 -4
-7 -19 -19 -32 -11 -13 -18 -24 -16 -24 3 0 -3 -10 -14 -22 -68 -72 -66 -270
3 -327 8 -7 13 -18 9 -24 -3 -5 -2 -7 4 -4 6 4 20 -5 33 -18 13 -13 27 -22 31
-19 5 3 9 1 9 -4 0 -5 11 -15 25 -22 13 -7 22 -17 19 -21 -3 -5 3 -6 12 -2 12
4 15 3 10 -5 -4 -7 -1 -12 9 -12 9 0 35 -13 58 -28 23 -16 59 -36 80 -46 20
-9 37 -21 37 -26 0 -6 6 -10 14 -10 8 0 21 -7 30 -15 8 -8 41 -30 74 -48 64
-35 117 -67 274 -165 109 -69 157 -91 203 -94 71 -4 114 3 148 26 19 13 38 22
41 18 3 -3 6 0 6 6 0 6 7 9 15 6 10 -4 15 0 15 11 0 10 4 13 13 9 7 -5 6 0 -3
11 -8 10 -10 16 -3 12 7 -5 29 19 60 64 44 66 48 77 48 132 0 62 -6 70 -73
116 -12 8 -18 19 -15 24 3 5 -4 4 -15 -2 -17 -9 -25 -5 -53 23 -18 19 -38 32
-45 29 -6 -2 -20 6 -31 19 -10 13 -25 24 -33 26 -8 2 -22 10 -31 18 -8 8 -18
14 -22 14 -3 0 -26 13 -49 29 -24 16 -45 28 -49 26 -3 -2 -19 8 -35 23 -16 15
-34 28 -39 30 -31 11 -103 57 -99 64 3 4 -3 5 -12 1 -13 -5 -15 -3 -9 7 5 8 4
11 -3 6 -6 -3 -19 2 -29 12 -10 9 -27 24 -37 32 -18 13 -19 13 -12 0 4 -9 1
-8 -7 3 -8 9 -19 17 -24 17 -5 0 -35 18 -66 40 -32 22 -57 36 -57 32 0 -4 -4
-2 -8 3 -4 6 -28 20 -54 33 -27 13 -48 27 -48 32 0 5 -12 7 -26 4 l-26 -5 27
43 c14 24 29 49 33 56 5 7 16 10 25 6 9 -3 15 -10 12 -14 -3 -4 6 -15 20 -24
14 -9 25 -13 25 -9 0 5 4 3 8 -3 7 -10 51 -38 102 -66 60 -33 130 -80 130 -89
0 -4 7 -6 15 -3 8 4 15 1 15 -7 0 -7 3 -9 7 -6 3 4 12 -1 20 -11 10 -11 12
-12 8 -2 -4 10 -2 9 8 -2 8 -10 18 -18 24 -18 5 0 19 -9 31 -20 12 -12 22 -17
22 -13 0 4 4 3 8 -3 4 -7 23 -21 42 -31 24 -14 34 -26 32 -39 -2 -14 -1 -16 6
-6 12 18 21 17 39 -5 8 -10 11 -12 7 -4 -4 8 10 1 32 -15 21 -16 41 -32 42
-36 2 -5 9 -8 17 -8 7 0 18 -7 25 -15 7 -9 15 -13 17 -11 3 2 13 -3 24 -12 11
-9 23 -17 27 -17 4 -1 23 -11 42 -23 19 -12 38 -22 43 -22 4 0 7 -12 7 -27 0
-21 3 -24 12 -15 7 7 27 12 45 12 23 0 42 8 58 25 14 13 25 21 25 18 0 -3 11
11 25 31 14 20 25 41 25 47 0 6 5 7 10 4 6 -3 10 2 10 12 0 10 15 35 33 56 33
37 33 37 68 23 33 -14 59 -49 59 -81 0 -24 56 -80 105 -105 48 -25 101 -28
137 -9 14 7 20 6 24 -6 3 -8 10 -12 15 -9 5 3 9 0 9 -7 0 -15 61 -75 110 -109
19 -13 37 -27 40 -30 12 -15 144 -110 152 -110 5 0 6 -4 3 -10 -3 -5 -2 -10 3
-10 5 0 20 -9 33 -20 28 -23 27 -22 104 -80 33 -25 62 -48 63 -52 2 -5 10 -8
18 -8 9 0 12 -5 8 -12 -5 -8 -2 -9 10 -5 9 4 15 3 12 -1 -2 -4 26 -31 64 -59
38 -28 66 -54 62 -59 -4 -4 -2 -4 4 -1 13 7 77 -37 67 -46 -3 -4 1 -7 9 -7 9
0 26 -11 39 -25 13 -13 27 -25 31 -25 4 0 17 -8 29 -18 12 -9 36 -28 53 -42
17 -14 48 -37 68 -50 20 -13 34 -28 32 -32 -3 -4 3 -5 12 -1 13 5 16 3 11 -10
-4 -11 -2 -14 9 -10 7 3 14 0 14 -6 0 -6 3 -10 8 -9 7 3 43 -25 84 -64 10 -10
18 -16 18 -13 0 3 10 -3 22 -14 12 -12 40 -33 62 -48 23 -15 43 -30 46 -33 3
-3 14 -10 25 -17 11 -6 19 -16 18 -22 -2 -6 3 -8 10 -6 16 6 60 -32 52 -45 -3
-6 0 -7 10 -4 9 4 23 -2 34 -15 10 -11 34 -24 52 -28 53 -10 62 -24 48 -78 -6
-25 -15 -45 -20 -45 -5 0 -9 -9 -9 -21 0 -13 -4 -18 -12 -13 -8 5 -9 2 -5 -10
5 -11 -1 -32 -15 -55 -13 -20 -22 -39 -21 -43 2 -4 -5 -4 -14 -1 -11 4 -14 3
-9 -5 4 -7 -8 -33 -28 -61 -20 -27 -36 -54 -36 -60 0 -7 -5 -9 -10 -6 -6 3
-13 -1 -16 -10 -6 -14 -102 -113 -136 -140 -59 -46 -94 -70 -100 -67 -5 1 -8
-3 -8 -9 0 -6 -7 -8 -16 -5 -8 3 -13 2 -10 -2 12 -20 -238 -122 -301 -122 -16
0 -22 -4 -17 -12 4 -6 3 -8 -3 -5 -6 4 -25 2 -44 -3 -40 -12 -2762 -16 -2851
-5 -32 4 -58 12 -58 17 0 6 -9 8 -20 5 -21 -6 -214 56 -204 65 3 4 -4 4 -17 1
-15 -4 -20 -3 -15 5 4 7 1 12 -8 12 -22 0 -77 35 -69 44 4 4 -1 4 -11 0 -15
-6 -17 -4 -11 6 6 10 4 12 -8 7 -10 -3 -17 -3 -17 2 0 4 -9 12 -19 17 -35 16
-221 185 -221 200 0 3 -21 31 -46 62 -39 48 -81 126 -77 142 1 3 -5 9 -13 13
-8 4 -14 14 -14 21 0 8 -11 38 -25 69 -13 30 -32 95 -42 144 -17 82 -18 186
-21 1433 -1 904 1 1374 8 1435 6 49 12 98 13 108 1 9 5 17 9 17 4 0 8 11 8 25
0 13 10 50 22 82 13 32 23 63 24 68 3 27 27 74 35 69 5 -3 9 2 9 10 0 8 6 21
14 29 8 8 24 35 36 61 14 29 61 85 126 149 136 135 147 144 173 142 13 -1 20
3 17 10 -2 6 5 17 16 24 16 10 19 10 12 -1 -4 -7 5 -3 20 10 16 12 34 22 41
22 7 0 18 6 24 14 6 8 24 16 39 19 15 3 60 17 100 32 40 14 92 28 115 31 23 4
60 10 82 14 22 5 667 7 1433 7 1074 -2 1394 -5 1400 -14z m-1334 -703 c88 -33
826 -508 868 -558 48 -57 61 -144 33 -222 -21 -61 -94 -157 -134 -176 -41 -20
-49 -17 -185 75 -225 151 -611 391 -824 511 -136 76 -145 101 -81 216 63 112
139 163 241 164 31 0 68 -4 82 -10z m-226 -411 c50 -38 134 -89 148 -89 9 0
12 -4 9 -10 -3 -6 1 -7 9 -4 9 3 16 2 16 -3 0 -5 22 -20 50 -34 27 -13 50 -27
50 -31 0 -8 101 -67 114 -66 5 0 12 -5 15 -10 5 -8 54 -42 110 -77 9 -5 18
-13 21 -16 3 -3 29 -19 57 -36 43 -24 50 -32 40 -43 -9 -10 -9 -11 1 -6 7 4
21 2 30 -6 16 -12 16 -11 2 7 -11 15 -7 13 15 -5 16 -14 36 -32 43 -40 7 -8
11 -9 7 -3 -4 8 -1 11 9 7 9 -3 14 -11 13 -16 -1 -6 17 -17 40 -25 46 -16 47
-24 11 -75 -24 -34 -35 -35 -60 -3 -11 14 -26 25 -34 25 -8 0 -25 9 -37 21
-12 11 -66 48 -121 81 -54 34 -107 71 -119 82 -11 12 -16 14 -12 6 5 -9 -1 -7
-15 5 -15 13 -21 15 -16 5 4 -8 -1 -5 -10 8 -9 12 -22 22 -29 22 -8 0 -15 3
-17 8 -1 4 -23 18 -48 31 -25 13 -57 35 -71 48 -14 13 -35 25 -47 28 -12 2
-46 20 -75 39 -30 20 -59 36 -66 36 -7 0 -9 5 -6 10 4 6 3 10 -2 9 -21 -4 -41
2 -59 19 -10 9 -25 17 -31 18 -29 2 -33 5 -33 17 0 18 49 87 61 87 6 0 23 -9
37 -21z m73 -197 c234 -141 645 -399 697 -438 55 -43 50 -57 -137 -347 -332
-516 -358 -554 -386 -561 -31 -8 -31 -8 -220 112 -188 119 -544 339 -651 403
-119 71 -121 82 -23 239 262 421 443 701 457 710 9 5 24 10 33 10 9 0 112 -58
230 -128z m658 -807 c27 -20 52 -42 55 -51 4 -11 10 -12 25 -4 33 17 55 12
119 -30 71 -45 84 -74 56 -119 -43 -67 -205 -300 -220 -315 -24 -24 -65 -19
-120 15 -58 36 -74 55 -74 85 0 13 45 91 101 175 103 156 129 201 92 164 -10
-11 -20 -24 -21 -28 -1 -4 -7 -14 -14 -21 -29 -31 -48 -57 -48 -67 0 -5 -4 -7
-10 -4 -6 4 -7 -1 -3 -12 3 -10 2 -14 -2 -10 -9 8 -47 -46 -66 -91 -5 -13 -14
-20 -19 -17 -6 4 -10 3 -9 -2 4 -24 -3 -43 -16 -43 -20 0 -104 43 -105 53 0
14 61 95 77 101 8 3 12 10 8 16 -8 13 25 62 40 56 6 -2 12 2 12 10 0 7 -5 10
-11 7 -13 -8 14 28 29 39 7 5 7 8 0 8 -7 0 -7 3 0 8 15 10 69 96 56 88 -7 -4
-9 -1 -5 8 9 23 18 20 73 -19z m-1475 -137 c56 -34 202 -124 326 -201 124 -77
304 -188 400 -247 216 -133 234 -149 227 -197 -8 -50 -79 -165 -121 -197 -79
-60 -182 -73 -257 -32 -121 64 -789 480 -822 512 -25 25 -42 53 -53 91 -23 80
-8 147 54 237 82 119 102 122 246 34z"/>
<path d="M1624 4585 c-7 -11 -19 -47 -29 -80 -32 -114 -131 -224 -233 -261
-26 -9 -65 -25 -87 -36 l-40 -20 57 5 c109 10 240 102 292 206 31 60 58 154
54 183 -3 22 -4 23 -14 3z"/>
<path d="M1663 4551 c9 -75 65 -190 122 -246 71 -72 238 -140 259 -106 5 7 1
8 -10 4 -12 -4 -15 -3 -10 6 5 8 3 12 -5 10 -32 -4 -50 1 -43 13 4 6 3 8 -4 4
-11 -7 -78 21 -100 42 -7 6 -18 12 -23 12 -6 0 -7 5 -3 12 5 8 2 9 -9 5 -24
-9 -101 107 -133 201 -34 99 -49 115 -41 43z"/>
<path d="M1263 4158 c15 -7 27 -15 27 -20 0 -4 16 -8 36 -8 19 0 33 -4 30 -9
-3 -5 6 -12 22 -16 40 -10 152 -100 152 -123 0 -4 9 -18 19 -29 11 -11 30 -54
42 -94 24 -83 49 -122 49 -77 0 39 -34 141 -64 192 -58 99 -184 180 -295 191
-42 4 -44 4 -18 -7z"/>
<path d="M1943 4149 c-65 -20 -143 -73 -187 -126 -38 -46 -84 -150 -92 -210
-4 -29 -4 -53 -1 -53 10 0 43 82 51 125 6 28 10 35 17 24 6 -10 9 -7 9 12 0
28 56 106 72 101 5 -1 7 2 3 7 -7 13 106 89 124 83 8 -3 11 0 7 7 -4 6 -2 9 6
6 7 -3 36 6 63 19 47 23 48 24 20 25 -16 0 -58 -9 -92 -20z"/>
<path d="M4526 3708 c-5 -16 -12 -25 -17 -22 -5 3 -7 -1 -4 -8 6 -17 -63 -111
-75 -103 -6 4 -10 1 -10 -5 0 -6 -4 -8 -10 -5 -5 3 -10 1 -10 -4 0 -6 -5 -11
-11 -11 -6 0 -21 -8 -34 -18 l-23 -18 42 -26 c22 -15 45 -27 49 -27 15 0 54
-48 83 -102 32 -57 42 -50 24 16 -16 58 -75 114 -136 130 l-47 12 46 11 c26 7
62 26 81 43 38 33 70 103 64 140 -4 24 -5 24 -12 -3z"/>
<path d="M4561 3685 c16 -88 69 -141 159 -160 l35 -7 -32 24 c-17 12 -45 30
-61 39 -16 9 -35 30 -43 47 -7 17 -17 28 -21 26 -4 -3 -8 3 -8 13 0 10 -9 29
-19 43 l-19 24 9 -49z"/>
<path d="M4670 3494 c-63 -27 -91 -65 -109 -145 l-10 -44 30 35 c16 19 29 42
29 52 0 10 5 18 10 18 6 0 10 6 10 13 0 8 18 22 40 32 22 10 47 26 56 36 16
18 16 19 -2 19 -10 -1 -35 -8 -54 -16z"/>
<path d="M1555 2101 c-105 -27 -174 -117 -175 -226 0 -80 -7 -92 -55 -106 -24
-7 -42 -16 -39 -20 2 -4 -7 -10 -21 -13 -14 -4 -25 -10 -25 -15 0 -4 -11 -20
-24 -34 -45 -49 -65 -122 -65 -246 0 -62 3 -110 6 -107 3 3 15 -6 26 -20 l20
-25 921 2 c1272 4 1574 10 1587 29 16 24 5 237 -15 295 -18 50 -86 125 -114
125 -7 0 -11 4 -8 9 4 5 -12 12 -34 16 -46 8 -48 12 -52 122 -2 46 -6 83 -10
83 -5 0 -8 6 -8 14 0 8 -12 24 -27 36 -16 12 -21 18 -13 15 8 -4 2 4 -15 18
-16 14 -33 23 -36 21 -4 -2 -20 3 -36 11 -25 12 -162 15 -894 19 -475 3 -877
2 -894 -3z m1828 -64 c62 -47 71 -70 77 -181 l5 -101 43 -6 c56 -7 119 -53
157 -113 29 -48 30 -52 30 -180 l0 -131 -1244 -3 c-969 -2 -1247 1 -1259 10
-21 18 -12 217 12 273 32 76 121 145 186 145 l30 0 0 90 c0 125 28 178 110
214 31 14 148 15 926 13 l891 -2 36 -28z"/>
<path d="M1452 1754 c-12 -3 -20 -10 -16 -15 3 -6 241 -9 644 -9 352 1 644 -2
651 -6 8 -4 9 -3 5 4 -5 8 4 12 28 12 22 0 36 -5 36 -12 0 -10 2 -10 8 -1 6 9
67 12 242 11 298 -1 395 1 388 7 -7 7 -1955 15 -1986 9z"/>
</g>
</svg>
