<svg xmlns="http://www.w3.org/2000/svg" version="1.0" width="600" height="600" viewBox="0 0 600 600" preserveAspectRatio="xMidYMid meet"><default:g xmlns:default="http://www.w3.org/2000/svg" transform="translate(0.000000,600.000000) scale(0.100000,-0.100000)" fill="#000000" stroke="none"><default:path d="M0 3000 l0 -3000 3000 0 3000 0 0 3000 0 3000 -3000 0 -3000 0 0 -3000z m4422 2440 c138 -27 167 -33 223 -52 74 -25 226 -97 282 -135 114 -77 244 -205 321 -319 25 -37 34 -53 49 -86 9 -21 20 -38 25 -38 4 0 8 -7 8 -16 0 -9 11 -38 25 -65 36 -73 64 -172 80 -284 12 -83 15 -332 15 -1440 0 -1226 -3 -1392 -25 -1495 -3 -14 -8 -42 -10 -64 -5 -38 -27 -96 -69 -186 -11 -25 -21 -49 -22 -55 -3 -18 -88 -152 -124 -197 -45 -56 -183 -198 -188 -193 -2 2 -11 -3 -20 -11 -37 -32 -110 -81 -157 -107 -58 -31 -166 -77 -186 -80 -8 -2 -19 -6 -25 -9 -10 -7 -60 -19 -129 -33 -116 -22 -354 -26 -1590 -22 -1208 3 -1336 5 -1395 21 -36 9 -77 19 -93 21 -15 2 -33 8 -40 12 -6 4 -21 9 -32 10 -36 5 -258 121 -316 165 -104 79 -249 229 -249 257 0 6 -5 11 -10 11 -6 0 -14 8 -17 17 -4 10 -16 32 -28 48 -12 17 -35 57 -50 90 -15 33 -31 68 -36 77 -23 45 -52 143 -69 231 -19 95 -20 147 -20 1490 1 834 5 1410 10 1437 6 25 13 63 16 85 17 108 87 275 164 390 65 96 82 117 141 175 128 124 199 176 329 237 134 63 212 88 355 112 73 13 2791 13 2857 1z"/><default:path d="M1540 5399 c-161 -28 -337 -98 -459 -182 -89 -61 -200 -168 -265 -254 -113 -151 -172 -280 -211 -468 l-24 -110 0 -1385 c0 -1347 1 -1388 20 -1484 75 -370 327 -685 666 -831 107 -47 251 -84 358 -92 120 -10 2635 -10 2750 0 520 44 938 434 1026 957 5 32 9 645 9 1456 0 1519 2 1467 -54 1632 -130 381 -434 653 -846 755 -84 21 -100 21 -1475 23 -1316 2 -1396 1 -1495 -17z m2835 -49 c514 -55 918 -451 975 -957 7 -67 10 -459 8 -1249 l-3 -1151 -250 174 c-522 362 -1121 753 -1227 801 -5 2 -8 -6 -8 -17 0 -17 -58 -119 -80 -141 -3 -3 -11 -17 -19 -32 -8 -15 -17 -25 -21 -23 -5 3 -11 -2 -14 -11 -4 -10 -2 -13 7 -9 6 4 -3 -6 -20 -23 -18 -16 -33 -32 -33 -35 0 -3 48 -45 108 -95 104 -87 223 -179 872 -682 173 -134 346 -268 385 -299 147 -118 189 -140 242 -126 20 5 24 11 19 27 -3 12 2 42 10 67 8 25 19 105 24 176 l9 130 -4 -140 c-4 -152 -15 -225 -47 -325 -127 -394 -443 -671 -848 -745 -76 -14 -253 -15 -1495 -13 l-1410 3 -100 28 c-391 110 -676 395 -783 785 l-27 97 -3 1380 c-2 951 0 1406 8 1463 65 494 454 877 955 941 97 12 2656 13 2770 1z"/><default:path d="M1615 5320 c-22 -4 -59 -10 -82 -14 -23 -3 -75 -17 -115 -31 -40 -15 -85 -29 -100 -32 -15 -3 -33 -11 -39 -19 -6 -8 -17 -14 -24 -14 -7 0 -25 -10 -41 -22 -15 -13 -24 -17 -20 -10 7 11 4 11 -12 1 -11 -7 -18 -18 -16 -24 3 -7 -4 -11 -17 -10 -26 2 -37 -7 -173 -142 -65 -64 -112 -120 -126 -149 -12 -26 -28 -53 -36 -61 -8 -8 -14 -21 -14 -29 0 -8 -4 -13 -9 -10 -8 5 -32 -42 -35 -69 -1 -5 -11 -36 -24 -68 -12 -32 -22 -69 -22 -82 0 -14 -4 -25 -8 -25 -4 0 -8 -8 -9 -17 -1 -10 -7 -59 -13 -108 -7 -61 -9 -531 -8 -1435 3 -1247 4 -1351 21 -1433 10 -49 29 -114 42 -144 14 -31 25 -61 25 -69 0 -7 6 -17 14 -21 8 -4 14 -10 13 -13 -4 -16 38 -94 77 -142 25 -31 46 -59 46 -62 0 -15 186 -184 221 -200 10 -5 19 -13 19 -17 0 -5 7 -5 17 -2 12 5 14 3 8 -7 -6 -10 -4 -12 11 -6 10 4 15 4 11 0 -8 -9 47 -44 69 -44 9 0 12 -5 8 -12 -5 -8 0 -9 15 -5 13 3 20 3 17 -1 -10 -9 183 -71 204 -65 11 3 20 1 20 -5 0 -5 26 -13 58 -17 89 -11 2811 -7 2851 5 19 5 38 7 44 3 6 -3 7 -1 3 5 -5 8 1 12 17 12 63 0 313 102 301 122 -3 4 2 5 10 2 9 -3 16 -1 16 5 0 6 3 10 8 9 6 -3 41 21 100 67 34 27 130 126 136 140 3 9 10 13 16 10 5 -3 10 -1 10 6 0 6 16 33 36 60 20 28 32 54 28 61 -5 8 -2 9 9 5 9 -3 16 -3 14 1 -1 4 8 23 21 43 14 23 20 44 15 55 -4 12 -3 15 5 10 8 -5 12 0 12 13 0 12 4 21 9 21 5 0 14 20 20 45 14 54 5 68 -48 78 -18 4 -42 17 -52 28 -11 13 -25 19 -34 15 -10 -3 -13 -2 -10 4 8 13 -36 51 -52 45 -7 -2 -12 0 -10 6 1 6 -7 16 -18 22 -11 7 -22 14 -25 17 -3 3 -23 18 -46 33 -22 15 -50 36 -62 48 -12 11 -22 17 -22 14 0 -3 -8 3 -18 13 -41 39 -77 67 -84 64 -5 -1 -8 3 -8 9 0 6 -7 9 -14 6 -11 -4 -13 -1 -9 10 5 13 2 15 -11 10 -9 -4 -15 -3 -12 1 2 4 -12 19 -32 32 -20 13 -51 36 -68 50 -17 14 -41 33 -53 42 -12 10 -25 18 -29 18 -4 0 -18 12 -31 25 -13 14 -30 25 -39 25 -8 0 -12 3 -9 7 10 9 -54 53 -67 46 -6 -3 -8 -3 -4 1 4 5 -24 31 -62 59 -38 28 -66 55 -64 59 3 4 -3 5 -12 1 -12 -4 -15 -3 -10 5 4 7 1 12 -8 12 -8 0 -16 3 -18 8 -1 4 -30 27 -63 52 -77 58 -76 57 -104 80 -13 11 -28 20 -33 20 -5 0 -6 5 -3 10 3 6 2 10 -3 10 -8 0 -140 95 -152 110 -3 3 -21 17 -40 30 -49 34 -110 94 -110 109 0 7 -4 10 -9 7 -5 -3 -12 1 -15 9 -4 12 -10 13 -24 6 -36 -19 -89 -16 -137 9 -49 25 -105 81 -105 105 0 32 -26 67 -59 81 -35 14 -35 14 -68 -23 -18 -21 -33 -46 -33 -56 0 -10 -4 -15 -10 -12 -5 3 -10 2 -10 -4 0 -6 -11 -27 -25 -47 -14 -20 -25 -34 -25 -31 0 3 -11 -5 -25 -18 -16 -17 -35 -25 -58 -25 -18 0 -38 -5 -45 -12 -9 -9 -12 -6 -12 15 0 15 -3 27 -7 27 -5 0 -24 10 -43 22 -19 12 -38 22 -42 23 -4 0 -16 8 -27 17 -11 9 -21 14 -24 12 -2 -2 -10 2 -17 11 -7 8 -18 15 -25 15 -8 0 -15 3 -17 8 -1 4 -21 20 -42 36 -22 16 -36 23 -32 15 4 -8 1 -6 -7 4 -18 22 -27 23 -39 5 -7 -10 -8 -8 -6 6 2 13 -8 25 -32 39 -19 10 -38 24 -42 31 -4 6 -8 7 -8 3 0 -4 -10 1 -22 13 -12 11 -26 20 -31 20 -6 0 -16 8 -24 18 -10 11 -12 12 -8 2 4 -10 2 -9 -8 2 -8 10 -17 15 -20 11 -4 -3 -7 -1 -7 6 0 8 -7 11 -15 7 -8 -3 -15 -1 -15 3 0 9 -70 56 -130 89 -51 28 -95 56 -102 66 -4 6 -8 8 -8 3 0 -4 -11 0 -25 9 -14 9 -23 20 -20 24 3 4 -3 11 -12 14 -9 4 -20 1 -25 -6 -4 -7 -19 -32 -33 -56 l-27 -43 26 5 c14 3 26 1 26 -4 0 -5 21 -19 48 -32 26 -13 50 -27 54 -33 4 -5 8 -7 8 -3 0 4 25 -10 57 -32 31 -22 61 -40 66 -40 5 0 16 -8 24 -17 8 -11 11 -12 7 -3 -7 13 -6 13 12 0 10 -8 27 -23 37 -32 10 -10 23 -15 29 -12 7 5 8 2 3 -6 -6 -10 -4 -12 9 -7 9 4 15 3 12 -1 -4 -7 68 -53 99 -64 5 -2 23 -15 39 -30 16 -15 32 -25 35 -23 4 2 25 -10 49 -26 23 -16 46 -29 49 -29 4 0 14 -6 22 -14 9 -8 23 -16 31 -18 8 -2 23 -13 33 -26 11 -13 25 -21 31 -19 7 3 27 -10 45 -29 28 -28 36 -32 53 -23 11 6 18 7 15 2 -3 -5 3 -16 15 -24 67 -46 73 -54 73 -116 0 -55 -4 -66 -48 -132 -31 -45 -53 -69 -60 -64 -7 4 -5 -2 3 -12 9 -11 10 -16 3 -11 -9 4 -13 1 -13 -9 0 -11 -5 -15 -15 -11 -8 3 -15 0 -15 -6 0 -6 -3 -9 -6 -6 -3 4 -22 -5 -41 -18 -34 -23 -77 -30 -148 -26 -46 3 -94 25 -203 94 -157 98 -210 130 -274 165 -33 18 -66 40 -74 48 -9 8 -22 15 -30 15 -8 0 -14 4 -14 10 0 5 -17 17 -37 26 -21 10 -57 30 -80 46 -23 15 -49 28 -58 28 -10 0 -13 5 -9 12 5 8 2 9 -10 5 -9 -4 -15 -3 -12 2 3 4 -6 14 -19 21 -14 7 -25 17 -25 22 0 5 -4 7 -9 4 -4 -3 -18 6 -31 19 -13 13 -27 22 -33 18 -6 -3 -7 -1 -4 4 4 6 -1 17 -9 24 -69 57 -71 255 -3 327 11 12 17 22 14 22 -2 0 5 11 16 24 12 13 20 28 19 32 -3 11 104 76 108 64 2 -5 10 -10 18 -10 9 0 12 4 9 10 -3 5 12 0 34 -12 l40 -21 21 24 c13 15 19 33 16 49 -3 14 -8 40 -12 57 -4 24 -1 42 15 68 12 20 21 41 21 47 0 7 8 21 18 32 31 36 75 109 60 101 -7 -3 -4 2 7 12 31 28 86 123 78 136 -4 6 0 8 10 4 9 -3 16 -3 15 1 -3 10 58 113 63 107 3 -2 11 11 18 30 7 20 17 33 22 29 5 -3 9 -2 8 3 -5 19 14 62 24 56 6 -4 8 0 4 10 -3 9 -1 19 5 23 7 5 8 2 3 -6 -5 -9 -4 -11 3 -6 7 4 12 12 12 17 0 6 11 25 25 43 14 18 25 40 25 49 0 9 8 22 18 29 9 7 28 30 42 50 14 21 29 38 33 38 5 0 5 5 2 10 -4 6 -3 10 2 9 4 -1 10 0 13 1 3 1 18 4 33 6 52 9 75 23 85 53 9 25 8 31 -3 31 -7 0 -15 4 -17 9 -1 5 -10 11 -18 13 -8 2 -20 16 -27 32 -21 47 -13 154 10 139 5 -3 7 -1 3 5 -11 19 104 172 130 172 8 0 14 4 14 8 0 14 99 42 147 42 52 0 123 -19 123 -32 0 -5 4 -7 9 -3 5 3 15 -1 23 -8 7 -7 37 -26 65 -43 29 -16 53 -32 53 -36 0 -5 6 -8 13 -8 6 0 34 -16 61 -35 27 -19 55 -35 62 -35 6 0 18 -7 25 -17 8 -9 30 -24 49 -32 19 -9 68 -39 109 -66 40 -28 98 -65 130 -84 31 -19 58 -37 61 -40 8 -10 114 -76 121 -76 4 0 11 -4 16 -9 5 -5 2 -6 -7 -2 -8 4 -6 1 4 -8 10 -8 22 -17 25 -18 4 -2 18 -19 32 -38 39 -53 59 -118 54 -170 -8 -69 -10 -77 -24 -94 -7 -8 -9 -21 -5 -27 4 -7 3 -9 -3 -6 -6 4 -14 -4 -17 -17 -8 -33 -106 -135 -133 -139 -12 -2 -25 -6 -29 -9 -5 -6 -47 8 -96 33 -17 9 -26 1 -47 -39 -10 -18 -10 -26 0 -38 24 -30 16 -96 -19 -146 -17 -26 -32 -51 -32 -57 0 -6 -4 -11 -10 -11 -5 0 -10 -6 -10 -14 0 -8 -6 -21 -14 -28 -7 -8 -17 -24 -21 -37 -10 -32 48 -85 96 -87 58 -3 101 -11 108 -21 3 -5 25 -20 47 -33 50 -27 69 -59 68 -112 -1 -38 1 -41 40 -60 22 -10 64 -32 91 -49 28 -16 57 -33 65 -36 8 -4 19 -12 23 -20 4 -7 13 -13 19 -13 6 0 32 -16 59 -36 27 -20 49 -32 49 -27 0 4 4 3 8 -2 4 -6 34 -28 66 -49 33 -21 64 -43 70 -48 6 -5 40 -27 76 -50 36 -23 83 -55 105 -72 38 -30 64 -47 95 -63 8 -4 55 -36 105 -71 49 -35 133 -92 185 -128 170 -115 195 -133 220 -154 45 -37 67 -49 75 -42 5 4 6 2 2 -3 -8 -15 27 -35 42 -26 9 6 11 270 8 1182 l-3 1174 -27 98 c-15 54 -34 111 -42 127 -8 16 -15 36 -15 44 0 8 -6 19 -14 23 -14 8 -16 12 -16 32 0 5 -12 24 -27 43 -17 20 -20 27 -8 18 17 -13 17 -12 -3 15 -12 17 -30 41 -41 55 -12 14 -21 31 -21 39 0 8 -6 11 -16 7 -9 -3 -12 -2 -9 5 4 5 -5 21 -20 35 -14 13 -23 24 -19 24 4 0 -10 13 -31 30 -21 16 -45 38 -54 48 -19 21 -111 82 -123 82 -5 0 -7 4 -4 9 6 8 -14 21 -41 27 -7 1 -26 12 -43 24 -16 12 -30 19 -30 16 0 -3 -30 8 -67 23 -78 33 -149 54 -178 53 -11 -1 -23 4 -27 11 -6 9 -326 12 -1400 14 -766 0 -1411 -2 -1433 -7z m10 -817 c-9 -31 -27 -78 -41 -104 -52 -104 -183 -196 -292 -206 l-57 -5 40 20 c22 11 61 27 87 36 102 37 201 147 233 261 10 33 22 69 29 80 10 20 11 19 14 -3 2 -12 -4 -48 -13 -79z m79 5 c32 -94 109 -210 133 -201 11 4 14 3 9 -5 -4 -7 -3 -12 3 -12 5 0 16 -6 23 -12 22 -21 89 -49 100 -42 7 4 8 2 4 -4 -7 -12 11 -17 43 -13 8 2 10 -2 5 -10 -5 -9 -2 -10 10 -6 11 4 15 3 10 -4 -21 -34 -188 34 -259 106 -57 56 -113 171 -122 246 -8 72 7 56 41 -43z m-322 -368 c64 -24 158 -104 194 -166 30 -51 64 -153 64 -192 0 -45 -25 -6 -49 77 -12 40 -31 83 -42 94 -10 11 -19 25 -19 29 0 23 -112 113 -152 123 -16 4 -25 11 -22 16 3 5 -11 9 -30 9 -20 0 -36 4 -36 8 0 5 -12 13 -27 20 -50 21 57 5 119 -18z m633 4 c-27 -13 -56 -22 -63 -19 -8 3 -10 0 -6 -6 4 -7 1 -10 -7 -7 -18 6 -131 -70 -124 -83 4 -5 2 -8 -3 -7 -16 5 -72 -73 -72 -101 0 -19 -3 -22 -9 -12 -7 11 -11 4 -17 -24 -8 -43 -41 -125 -51 -125 -14 0 11 111 37 168 36 77 66 115 132 164 52 40 152 77 203 77 28 -1 27 -2 -20 -25z m2510 -500 c-21 -55 -73 -101 -132 -116 l-46 -11 47 -12 c61 -16 120 -72 136 -130 18 -66 8 -73 -24 -16 -29 54 -68 102 -83 102 -4 0 -27 12 -49 27 l-42 26 23 18 c13 10 28 18 34 18 6 0 11 5 11 11 0 5 5 7 10 4 6 -3 10 -1 10 5 0 6 4 9 10 5 12 -8 81 86 75 103 -3 7 -1 11 4 8 5 -3 12 6 17 22 7 27 8 27 12 3 2 -13 -4 -43 -13 -67z m65 23 c0 -10 4 -16 8 -13 4 2 14 -9 21 -26 8 -17 27 -38 43 -47 16 -9 44 -27 61 -39 l32 -24 -35 7 c-90 19 -143 72 -159 160 l-9 49 19 -24 c10 -14 19 -33 19 -43z m136 -176 c-9 -10 -34 -26 -56 -36 -22 -10 -40 -24 -40 -32 0 -7 -4 -13 -10 -13 -5 0 -10 -8 -10 -18 0 -10 -13 -33 -29 -52 l-30 -35 10 44 c11 52 30 90 56 113 23 21 82 47 107 48 18 0 18 -1 2 -19z m-1383 -1406 c16 -8 32 -13 36 -11 3 2 20 -7 36 -21 17 -14 23 -22 15 -18 -8 3 -3 -3 13 -15 15 -12 27 -28 27 -36 0 -8 3 -14 8 -14 4 0 8 -37 10 -83 4 -110 6 -114 52 -122 22 -4 38 -11 34 -16 -3 -5 1 -9 8 -9 28 0 96 -75 114 -125 20 -58 31 -271 15 -295 -13 -19 -315 -25 -1587 -29 l-921 -2 -20 25 c-11 14 -23 23 -26 20 -3 -3 -6 45 -6 107 0 124 20 197 65 246 13 14 24 30 24 34 0 5 11 11 25 15 14 3 23 9 21 13 -3 4 15 13 39 20 48 14 55 26 55 106 1 109 70 199 175 226 17 5 419 6 894 3 732 -4 869 -7 894 -19z"/><default:path d="M1530 2054 c-82 -36 -110 -89 -110 -214 l0 -90 -30 0 c-65 0 -154 -69 -186 -145 -24 -56 -33 -255 -12 -273 12 -9 290 -12 1259 -10 l1244 3 0 131 c0 128 -1 132 -30 180 -38 60 -101 106 -157 113 l-43 6 -5 101 c-6 111 -15 134 -77 181 l-36 28 -891 2 c-778 2 -895 1 -926 -13z m1908 -309 c7 -6 -90 -8 -388 -7 -175 1 -236 -2 -242 -11 -6 -9 -8 -9 -8 1 0 7 -14 12 -36 12 -24 0 -33 -4 -28 -12 4 -7 3 -8 -5 -4 -7 4 -299 7 -651 6 -403 0 -641 3 -644 9 -4 5 4 12 16 15 31 6 1979 -2 1986 -9z"/><default:path d="M2934 4601 c-53 -24 -103 -74 -143 -145 -64 -115 -55 -140 81 -216 213 -120 599 -360 824 -511 136 -92 144 -95 185 -75 40 19 113 115 134 176 28 78 15 165 -33 222 -42 50 -780 525 -868 558 -42 16 -135 11 -180 -9z"/><default:path d="M2815 4183 c-14 -21 -25 -43 -25 -50 0 -12 4 -15 33 -17 6 -1 21 -9 31 -18 18 -17 38 -23 59 -19 5 1 6 -3 2 -9 -3 -5 -1 -10 6 -10 7 0 36 -16 66 -36 29 -19 63 -37 75 -39 12 -3 33 -15 47 -28 14 -13 46 -35 71 -48 25 -13 47 -27 48 -31 2 -5 9 -8 17 -8 7 0 20 -10 29 -22 9 -13 14 -16 10 -8 -5 10 1 8 16 -5 14 -12 20 -14 15 -5 -4 8 1 6 12 -6 12 -11 65 -48 119 -82 55 -33 109 -70 121 -81 12 -12 29 -21 37 -21 8 0 23 -11 34 -25 25 -32 36 -31 60 3 36 51 35 59 -11 75 -23 8 -41 19 -40 25 1 5 -4 13 -13 16 -10 4 -13 1 -9 -7 4 -6 0 -5 -7 3 -7 8 -27 26 -43 40 -22 18 -26 20 -15 5 14 -18 14 -19 -2 -7 -9 8 -23 10 -30 6 -10 -5 -10 -4 -1 6 10 11 3 19 -40 43 -28 17 -54 33 -57 36 -3 3 -12 11 -21 16 -56 35 -105 69 -110 77 -3 5 -10 10 -15 10 -13 -1 -114 58 -114 66 0 4 -23 18 -50 31 -28 14 -50 29 -50 34 0 5 -7 6 -16 3 -8 -3 -12 -2 -9 4 3 6 0 10 -9 10 -14 0 -98 51 -148 89 -36 29 -43 27 -73 -16z"/><default:path d="M2698 4120 c-14 -9 -195 -289 -457 -710 -98 -157 -96 -168 23 -239 107 -64 463 -284 651 -403 189 -120 189 -120 220 -112 28 7 54 45 386 561 187 290 192 304 137 347 -111 84 -901 566 -927 566 -9 0 -24 -5 -33 -10z"/><default:path d="M3546 3214 c-4 -9 -2 -12 5 -8 13 8 -41 -78 -56 -88 -7 -5 -7 -8 0 -8 7 0 7 -3 0 -8 -15 -11 -42 -47 -29 -39 6 3 11 0 11 -7 0 -8 -6 -12 -12 -10 -15 6 -48 -43 -40 -56 4 -6 0 -13 -8 -16 -16 -6 -77 -87 -77 -101 1 -10 85 -53 105 -53 13 0 20 19 16 43 -1 5 3 6 9 2 5 -3 14 4 19 17 19 45 57 99 66 91 4 -4 5 0 2 10 -4 11 -3 16 3 12 6 -3 10 -1 10 4 0 10 19 36 48 67 7 7 13 17 14 21 1 4 11 17 21 28 37 37 11 -8 -92 -164 -56 -84 -101 -162 -101 -175 0 -30 16 -49 74 -85 55 -34 96 -39 120 -15 15 15 177 248 220 315 28 45 15 74 -56 119 -64 42 -86 47 -119 30 -15 -8 -21 -7 -25 4 -6 16 -98 86 -113 86 -5 0 -12 -7 -15 -16z"/><default:path d="M1965 3106 c-41 -28 -114 -149 -126 -207 -15 -77 6 -153 58 -203 33 -32 701 -448 822 -512 75 -41 178 -28 257 32 42 32 113 147 121 197 7 48 -11 64 -227 197 -96 59 -276 170 -400 247 -402 249 -426 263 -456 263 -16 0 -38 -6 -49 -14z"/></default:g></svg>